<?xml version="1.0" encoding="UTF-8"?>
<svg width="12px" height="7px" viewBox="0 0 12 7" version="1.1" xmlns="http://www.w3.org/2000/svg" xmlns:xlink="http://www.w3.org/1999/xlink">
    <!-- Generator: Sketch 52.6 (67491) - http://www.bohemiancoding.com/sketch -->
    <title>dropdown</title>
    <desc>Created with Sketch.</desc>
    <g id="KPY-Home" stroke="none" stroke-width="1" fill="none" fill-rule="evenodd">
        <g id="POE-Home---Activate-03" transform="translate(-1444.000000, -631.000000)" fill="#4A4A4A">
            <g id="Group" transform="translate(194.000000, 269.000000)">
                <g id="Simple" transform="translate(0.000000, 176.000000)">
                    <g id="Right" transform="translate(813.000000, 123.000000)">
                        <g id="Business-Type">
                            <g id="dropdown" transform="translate(437.000000, 63.000000)">
                                <path d="M11.7149576,0.798375706 L11.1374,0.263678451 C10.9372552,0.0879094619 10.7034967,0 10.436664,0 C10.1643279,0 9.93334802,0.0879094619 9.74334671,0.263678451 L6.00002697,3.72817511 L2.25673421,0.26377832 C2.06675989,0.0880093306 1.83572607,9.98687439e-05 1.56349788,9.98687439e-05 C1.29653027,9.98687439e-05 1.06282569,0.0880093306 0.862653939,0.26377832 L0.292677005,0.798475575 C0.0975230318,0.978963362 0,1.19525409 0,1.44714803 C0,1.7037358 0.0976309411,1.91757975 0.292650028,2.08862994 L5.30676366,6.72915597 C5.49169323,6.90966872 5.72264611,7 6,7 C6.27214726,7 6.50582485,6.90969369 6.70078998,6.72915597 L11.7149306,2.08862994 C11.9049319,1.91276109 12,1.6989421 12,1.44714803 C12.000027,1.19994793 11.9049589,0.983782029 11.7149576,0.798375706 Z" id="Path"></path>
                            </g>
                        </g>
                    </g>
                </g>
            </g>
        </g>
    </g>
</svg>