<?xml version="1.0" encoding="UTF-8"?>
<svg width="21px" height="24px" viewBox="0 0 21 24" version="1.1" xmlns="http://www.w3.org/2000/svg" xmlns:xlink="http://www.w3.org/1999/xlink">
    <!-- Generator: Sketch 52.6 (67491) - http://www.bohemiancoding.com/sketch -->
    <title>copy-content</title>
    <desc>Created with Sketch.</desc>
    <g id="KPY-Referrals" stroke="none" stroke-width="1" fill="none" fill-rule="evenodd">
        <g id="POE-Referrals" transform="translate(-707.000000, -856.000000)" fill="#FFFFFF" fill-rule="nonzero">
            <g id="Main" transform="translate(207.000000, 269.000000)">
                <g id="Button" transform="translate(54.000000, 562.000000)">
                    <g id="copy-content" transform="translate(446.000000, 25.000000)">
                        <path d="M15.4736842,0 L2.21052632,0 C0.994736842,0 0,0.981818182 0,2.18181818 L0,17.4545455 L2.21052632,17.4545455 L2.21052632,2.18181818 L15.4736842,2.18181818 L15.4736842,0 Z M18.7894737,4.36363636 L6.63157895,4.36363636 C5.41578947,4.36363636 4.42105263,5.34545455 4.42105263,6.54545455 L4.42105263,21.8181818 C4.42105263,23.0181818 5.41578947,24 6.63157895,24 L18.7894737,24 C20.0052632,24 21,23.0181818 21,21.8181818 L21,6.54545455 C21,5.34545455 20.0052632,4.36363636 18.7894737,4.36363636 Z M18.7894737,21.8181818 L6.63157895,21.8181818 L6.63157895,6.54545455 L18.7894737,6.54545455 L18.7894737,21.8181818 Z" id="Shape"></path>
                    </g>
                </g>
            </g>
        </g>
    </g>
</svg>