<?xml version="1.0" encoding="utf-8"?>
<svg version="1.1" id="Layer_1" xmlns="http://www.w3.org/2000/svg" xmlns:xlink="http://www.w3.org/1999/xlink" x="0px" y="0px"
	 width="16.000000pt" height="16.000000pt" viewBox="0 0 244 244" style="enable-background:new 0 0 244 244;" xml:space="preserve">
<style type="text/css">
	.st0{fill:#345948;}
	.st1{clip-path:url(#SVGID_2_);fill:#FFC533;}
	.st2{clip-path:url(#SVGID_2_);}
	.st3{clip-path:url(#SVGID_4_);}
	.st4{fill:#9DCB3B;}
	.st5{fill:#95D572;}
	.st6{opacity:0.47;clip-path:url(#SVGID_6_);}
	.st7{fill:#231F20;}
	.st8{fill:#00B7F5;}
	.st9{fill:#50B748;}
	.st10{fill:#00A551;}
</style>
<g>
	<path class="st0" d="M101.81,13.15L32.8,58.62c-8.16,5.37-12.94,13.69-12.94,22.5v27.48v2.35v49.92c0,8.82,4.78,17.13,12.94,22.5
		l69.01,45.46c11.91,7.84,28.48,7.84,40.39,0l69.01-45.46c8.16-5.37,12.94-13.69,12.94-22.5v-49.92v-2.35V81.12
		c0-8.82-4.78-17.13-12.94-22.5l-69.01-45.46C130.29,5.31,113.71,5.31,101.81,13.15z"/>
	<g>
		<defs>
			<path id="SVGID_1_" d="M101.81,13.15L32.8,58.62c-8.16,5.37-12.94,13.69-12.94,22.5v27.48v2.35v49.92
				c0,8.82,4.78,17.13,12.94,22.5l69.01,45.46c11.91,7.84,28.48,7.84,40.39,0l69.01-45.46c8.16-5.37,12.94-13.69,12.94-22.5v-49.92
				v-2.35V81.12c0-8.82-4.78-17.13-12.94-22.5l-69.01-45.46C130.29,5.31,113.71,5.31,101.81,13.15z"/>
		</defs>
		<clipPath id="SVGID_2_">
			<use xlink:href="#SVGID_1_"  style="overflow:visible;"/>
		</clipPath>
		<circle class="st1" cx="125.18" cy="106.06" r="51.74"/>
		<g class="st2">
			<defs>
				<circle id="SVGID_3_" cx="93.61" cy="127.25" r="179.14"/>
			</defs>
			<clipPath id="SVGID_4_">
				<use xlink:href="#SVGID_3_"  style="overflow:visible;"/>
			</clipPath>
			<g class="st3">
				<circle class="st0" cx="308.55" cy="289.15" r="226.86"/>
			</g>
			<g class="st3">
				<path class="st4" d="M303,472.63c-12.56,0-25.28-1.24-38.05-3.82C161.24,447.86,93.91,346.45,114.86,242.74
					C135.81,139.03,237.22,71.71,340.93,92.66c103.71,20.95,171.03,122.36,150.08,226.07C472.65,409.66,392.4,472.63,303,472.63z
					 M302.59,111.24c-32.99,0-65.26,9.67-93.37,28.33c-37.71,25.03-63.41,63.25-72.37,107.61
					c-18.5,91.58,40.95,181.13,132.53,199.63c44.36,8.96,89.56,0.11,127.27-24.92c37.71-25.03,63.41-63.25,72.37-107.61l0,0
					c18.5-91.58-40.95-181.13-132.53-199.63C325.2,112.37,313.85,111.24,302.59,111.24z"/>
			</g>
			<g class="st3">
				<path class="st4" d="M302.98,419.71c-9.09,0-18.31-0.9-27.56-2.77c-36.38-7.35-67.73-28.43-88.26-59.35
					c-20.53-30.92-27.79-67.99-20.44-104.37c15.17-75.11,88.61-123.88,163.73-108.7c36.38,7.35,67.73,28.43,88.26,59.35
					c20.53,30.92,27.79,67.99,20.44,104.37l0,0C425.85,374.11,367.73,419.71,302.98,419.71z M302.91,164.2
					c-54.3,0-103.03,38.24-114.18,93.46c-6.17,30.51-0.08,61.59,17.14,87.52c17.21,25.93,43.5,43.6,74.01,49.77
					c62.99,12.73,124.57-28.17,137.29-91.14c6.16-30.51,0.08-61.59-17.14-87.52c-17.22-25.93-43.5-43.6-74.01-49.77
					C318.27,164.95,310.53,164.2,302.91,164.2z"/>
			</g>
			<g class="st3">
				<path class="st5" d="M518.02,712.28c-13.17,0-26.42-1.31-39.62-3.98C371.37,686.67,301.88,582,323.5,474.97
					c10.47-51.85,40.51-96.52,84.58-125.77c44.07-29.26,96.9-39.61,148.74-29.13c51.85,10.47,96.52,40.51,125.77,84.58
					c29.26,44.07,39.6,96.89,29.13,148.74c-10.47,51.85-40.51,96.52-84.58,125.77C594.29,700.98,556.57,712.28,518.02,712.28z
					 M517.33,377.81c-26.54,0-52.51,7.78-75.12,22.79c-30.34,20.14-51.02,50.89-58.23,86.58s-0.09,72.06,20.05,102.4
					c20.14,30.34,50.89,51.02,86.58,58.23c73.68,14.89,145.74-32.95,160.63-106.64c7.21-35.69,0.09-72.06-20.05-102.4
					c-20.14-30.34-50.89-51.02-86.58-58.23C535.52,378.71,526.39,377.81,517.33,377.81z"/>
			</g>
			<g class="st3">
				<defs>
					<circle id="SVGID_5_" cx="308.55" cy="289.15" r="226.86"/>
				</defs>
				<clipPath id="SVGID_6_">
					<use xlink:href="#SVGID_5_"  style="overflow:visible;"/>
				</clipPath>
				<g class="st6">
					<path class="st7" d="M75.98,73.78C-52.7,47.79-178.54,131.33-204.53,260c-25.99,128.68,57.55,254.51,186.22,280.51
						c15.87,3.2,31.8,4.79,47.63,4.79c46.35,0,91.7-13.59,131.19-39.81c52.98-35.17,89.09-88.87,101.69-151.21
						C288.2,225.61,204.66,99.77,75.98,73.78z"/>
				</g>
			</g>
			<g class="st3">
				<circle class="st0" cx="17.62" cy="312.75" r="226.86"/>
				<path class="st4" d="M18.11,550.91c-15.83,0-31.76-1.58-47.63-4.79c-62.33-12.59-116.03-48.7-151.21-101.68
					c-35.17-52.98-47.61-116.49-35.02-178.82c12.59-62.34,48.7-116.04,101.69-151.21C-61.08,79.23,2.42,66.8,64.76,79.39
					c128.68,26,212.22,151.83,186.22,280.51l0,0c-12.59,62.33-48.7,116.03-101.68,151.2C109.81,537.32,64.45,550.91,18.11,550.91z
					 M17.55,97.09c-100.48,0-190.66,70.76-211.31,172.97c-11.41,56.46-0.14,113.98,31.72,161.97c31.86,47.99,80.5,80.7,136.96,92.1
					c56.46,11.41,113.98,0.15,161.97-31.71s80.7-80.5,92.1-136.96l0,0c23.54-116.55-52.12-230.53-168.67-254.07
					C45.97,98.48,31.66,97.09,17.55,97.09z"/>
			</g>
			<g class="st3">
				<path class="st4" d="M18.01,507.49c-12.76,0-25.6-1.28-38.39-3.86c-50.24-10.15-93.52-39.25-121.86-81.95
					c-28.35-42.7-38.37-93.88-28.22-144.12c10.15-50.24,39.25-93.52,81.95-121.86c42.69-28.35,93.88-38.37,144.12-28.22
					s93.52,39.25,121.86,81.95c28.35,42.7,38.37,93.88,28.22,144.12c-10.15,50.24-39.25,93.52-81.95,121.86
					C91.91,496.54,55.36,507.49,18.01,507.49z M17.27,146.07c-32.99,0-65.26,9.67-93.36,28.33
					c-37.71,25.03-63.41,63.25-72.37,107.61s-0.11,89.56,24.92,127.26c25.03,37.71,63.25,63.41,107.61,72.37
					c44.36,8.96,89.56,0.11,127.26-24.92c37.71-25.03,63.41-63.25,72.37-107.61l0,0c8.96-44.36,0.11-89.56-24.92-127.26
					c-25.03-37.71-63.25-63.41-107.61-72.37C39.88,147.19,28.53,146.07,17.27,146.07z"/>
			</g>
			<g class="st3">
				<circle class="st4" cx="17.62" cy="312.75" r="127.74"/>
				<path class="st4" d="M17.9,451.76c-9.24,0-18.54-0.93-27.8-2.8c-36.38-7.35-67.73-28.43-88.26-59.35
					c-20.53-30.92-27.79-67.99-20.44-104.37c7.35-36.38,28.43-67.73,59.35-88.26c30.92-20.53,67.99-27.79,104.37-20.44
					c36.38,7.35,67.73,28.43,88.26,59.35c20.53,30.92,27.79,67.99,20.44,104.37l0,0c-7.35,36.38-28.43,67.73-59.35,88.26
					C71.42,443.83,44.95,451.76,17.9,451.76z M17.38,196.19c-22.69,0-44.88,6.65-64.21,19.48c-25.93,17.22-43.6,43.5-49.77,74.01
					c-6.16,30.51-0.08,61.59,17.14,87.52c17.22,25.93,43.5,43.6,74.01,49.77c30.51,6.17,61.59,0.08,87.52-17.14
					c25.93-17.21,43.6-43.5,49.77-74.01l0,0c6.17-30.51,0.08-61.59-17.14-87.52c-17.21-25.93-43.5-43.6-74.01-49.77
					C32.93,196.97,25.12,196.19,17.38,196.19z"/>
			</g>
			<g class="st3">
				<circle class="st4" cx="-172.53" cy="570.18" r="167.18"/>
				<path class="st4" d="M-172.14,762.67c-12.79,0-25.67-1.28-38.5-3.87c-50.38-10.18-93.78-39.37-122.21-82.19
					c-28.43-42.82-38.48-94.15-28.3-144.53c10.18-50.38,39.37-93.78,82.19-122.21c42.82-28.43,94.15-38.47,144.53-28.3
					c50.38,10.18,93.78,39.37,122.21,82.19c28.43,42.82,38.48,94.15,28.3,144.53C5.91,658.66-23.28,702.07-66.1,730.49
					C-98.02,751.68-134.68,762.67-172.14,762.67z M-172.83,428.2c-27.63,0-54.67,8.1-78.21,23.73
					c-31.59,20.97-53.12,52.99-60.62,90.15c-7.51,37.16-0.09,75.02,20.88,106.61c20.97,31.59,52.99,53.12,90.15,60.62
					c37.15,7.51,75.02,0.1,106.61-20.88c31.59-20.97,53.12-52.99,60.62-90.15c7.51-37.16,0.09-75.02-20.88-106.61
					c-20.97-31.59-52.99-53.12-90.15-60.62C-153.89,429.14-163.39,428.2-172.83,428.2z"/>
			</g>
			<g class="st3">
				<path class="st8" d="M-3.23,3.89"/>
			</g>
			<g class="st3">
				<path class="st9" d="M3.29-79.97c-21.01-30.24-42.01-55.98-61.2-77.27c1.22-4.54,2.6-9.07,4.16-13.59
					c26.01,19.26,59.15,46.7,93.8,82.87C27.72-85.6,15.47-82.93,3.29-79.97z"/>
			</g>
			<g class="st3">
				<path class="st10" d="M-59.37-61.85c-5.56-23.58-6.79-48.37-3.13-73.2c15.11,17.34,31.1,37.3,47.09,59.87
					c-2.8,0.76-5.61,1.51-8.4,2.3C-35.76-69.5-47.6-65.8-59.37-61.85z"/>
			</g>
		</g>
	</g>
</g>
</svg>
